# xmcd
#
# Track frame offsets: 
#        150
#        13100
#        25767
#        39977
#        53715
#        70382
#        87105
#        105580
#        122287
#        136122
#        155190
#        171372
#
# Disc length: 2362 seconds
#
# Revision: 0
# Processed by: cddbd v1.4PL0 Copyright (c) Steve Scherf et al.
# Submitted via: ExactAudioCopy v0.90b4
#
DISCID=9309380c
DTITLE=Vidiek - Nechajte si ju
DYEAR=1995
DGENRE=Rock
TTITLE0=Nechajte si ju
TTITLE1=Blazon
TTITLE2=Fajcenie skodi zdraviu
TTITLE3=Navsteva u stryka
TTITLE4=Vsetko sa da
TTITLE5=S vlastnou tvarou
TTITLE6=Tisic divov, mozno aj viac
TTITLE7=Vidiecan
TTITLE8=Kroky lasky
TTITLE9=Film
TTITLE10=Slovensky tanec
TTITLE11=K stastiu nam uz nic nechyba
EXTD=
EXTT0=
EXTT1=
EXTT2=
EXTT3=
EXTT4=
EXTT5=
EXTT6=
EXTT7=
EXTT8=
EXTT9=
EXTT10=
EXTT11=
PLAYORDER=
